<mxfile host="app.diagrams.net" agent="Mozilla/5.0 (Windows NT 10.0; Win64; x64) AppleWebKit/537.36 (KHTML, like Gecko) Chrome/131.0.0.0 Safari/537.36" version="25.0.3">
  <diagram name="Page-1" id="20K62IgFWqAOXzsijBHe">
    <mxGraphModel dx="2284" dy="752" grid="1" gridSize="10" guides="1" tooltips="1" connect="1" arrows="1" fold="1" page="1" pageScale="1" pageWidth="850" pageHeight="1100" math="0" shadow="0">
      <root>
        <mxCell id="0" />
        <mxCell id="1" parent="0" />
        <mxCell id="pHmys_1eCfRG4DtqrsQs-1" value="" style="rounded=0;whiteSpace=wrap;html=1;" vertex="1" parent="1">
          <mxGeometry x="605" y="170" width="325" height="480" as="geometry" />
        </mxCell>
        <mxCell id="pHmys_1eCfRG4DtqrsQs-2" value="" style="rounded=0;whiteSpace=wrap;html=1;" vertex="1" parent="1">
          <mxGeometry x="-70" y="170" width="355" height="410" as="geometry" />
        </mxCell>
        <mxCell id="pHmys_1eCfRG4DtqrsQs-3" style="edgeStyle=orthogonalEdgeStyle;rounded=0;orthogonalLoop=1;jettySize=auto;html=1;exitX=0.75;exitY=1;exitDx=0;exitDy=0;entryX=0.75;entryY=0;entryDx=0;entryDy=0;" edge="1" parent="1" source="pHmys_1eCfRG4DtqrsQs-4" target="pHmys_1eCfRG4DtqrsQs-9">
          <mxGeometry relative="1" as="geometry" />
        </mxCell>
        <mxCell id="pHmys_1eCfRG4DtqrsQs-4" value="Backend" style="whiteSpace=wrap;html=1;" vertex="1" parent="1">
          <mxGeometry x="130" y="180" width="120" height="60" as="geometry" />
        </mxCell>
        <mxCell id="pHmys_1eCfRG4DtqrsQs-5" style="edgeStyle=orthogonalEdgeStyle;rounded=0;orthogonalLoop=1;jettySize=auto;html=1;exitX=0.75;exitY=1;exitDx=0;exitDy=0;entryX=0.75;entryY=0;entryDx=0;entryDy=0;" edge="1" parent="1" source="pHmys_1eCfRG4DtqrsQs-6" target="pHmys_1eCfRG4DtqrsQs-12">
          <mxGeometry relative="1" as="geometry" />
        </mxCell>
        <mxCell id="pHmys_1eCfRG4DtqrsQs-6" value="Backend" style="whiteSpace=wrap;html=1;" vertex="1" parent="1">
          <mxGeometry x="630" y="180" width="120" height="60" as="geometry" />
        </mxCell>
        <mxCell id="pHmys_1eCfRG4DtqrsQs-7" style="edgeStyle=orthogonalEdgeStyle;rounded=0;orthogonalLoop=1;jettySize=auto;html=1;exitX=1;exitY=0.367;exitDx=0;exitDy=0;entryX=0.017;entryY=0.367;entryDx=0;entryDy=0;exitPerimeter=0;entryPerimeter=0;" edge="1" parent="1" source="pHmys_1eCfRG4DtqrsQs-9" target="pHmys_1eCfRG4DtqrsQs-12">
          <mxGeometry relative="1" as="geometry" />
        </mxCell>
        <mxCell id="pHmys_1eCfRG4DtqrsQs-8" style="rounded=0;orthogonalLoop=1;jettySize=auto;html=1;exitX=1;exitY=1;exitDx=0;exitDy=0;entryX=0;entryY=0.5;entryDx=0;entryDy=0;startArrow=classic;startFill=1;" edge="1" parent="1" source="pHmys_1eCfRG4DtqrsQs-9" target="pHmys_1eCfRG4DtqrsQs-24">
          <mxGeometry relative="1" as="geometry" />
        </mxCell>
        <mxCell id="pHmys_1eCfRG4DtqrsQs-9" value="&lt;span id=&quot;selected_text&quot;&gt;&lt;/span&gt;&lt;span id=&quot;selected_text&quot;&gt;&lt;/span&gt;WSO2&amp;nbsp;&lt;span style=&quot;background-color: initial;&quot;&gt;1&lt;/span&gt;" style="whiteSpace=wrap;html=1;" vertex="1" parent="1">
          <mxGeometry x="130" y="350" width="120" height="60" as="geometry" />
        </mxCell>
        <mxCell id="pHmys_1eCfRG4DtqrsQs-10" style="edgeStyle=orthogonalEdgeStyle;rounded=0;orthogonalLoop=1;jettySize=auto;html=1;exitX=0.008;exitY=0.617;exitDx=0;exitDy=0;entryX=0.992;entryY=0.617;entryDx=0;entryDy=0;exitPerimeter=0;entryPerimeter=0;" edge="1" parent="1" source="pHmys_1eCfRG4DtqrsQs-12" target="pHmys_1eCfRG4DtqrsQs-9">
          <mxGeometry relative="1" as="geometry" />
        </mxCell>
        <mxCell id="pHmys_1eCfRG4DtqrsQs-11" style="edgeStyle=orthogonalEdgeStyle;rounded=0;orthogonalLoop=1;jettySize=auto;html=1;exitX=0.25;exitY=0;exitDx=0;exitDy=0;entryX=0.25;entryY=1;entryDx=0;entryDy=0;" edge="1" parent="1" source="pHmys_1eCfRG4DtqrsQs-12" target="pHmys_1eCfRG4DtqrsQs-6">
          <mxGeometry relative="1" as="geometry" />
        </mxCell>
        <mxCell id="pHmys_1eCfRG4DtqrsQs-12" value="&lt;span id=&quot;selected_text&quot;&gt;&lt;/span&gt;&lt;span id=&quot;selected_text&quot;&gt;&lt;/span&gt;&lt;span id=&quot;selected_text&quot;&gt;&lt;/span&gt;&lt;span id=&quot;selected_text&quot;&gt;&lt;/span&gt;&lt;span id=&quot;selected_text&quot;&gt;&lt;/span&gt;&lt;span id=&quot;selected_text&quot;&gt;&lt;/span&gt;WSO2 2" style="whiteSpace=wrap;html=1;" vertex="1" parent="1">
          <mxGeometry x="630" y="350" width="120" height="60" as="geometry" />
        </mxCell>
        <mxCell id="pHmys_1eCfRG4DtqrsQs-13" value="&lt;span id=&quot;selected_text&quot;&gt;&lt;/span&gt;&lt;span id=&quot;selected_text&quot;&gt;&lt;/span&gt;&lt;span id=&quot;selected_text&quot;&gt;&lt;/span&gt;1. Request với&lt;div&gt;dữ liệu bình thường&lt;/div&gt;" style="text;html=1;align=center;verticalAlign=middle;resizable=0;points=[];autosize=1;strokeColor=none;fillColor=none;" vertex="1" parent="1">
          <mxGeometry x="220" y="280" width="130" height="40" as="geometry" />
        </mxCell>
        <mxCell id="pHmys_1eCfRG4DtqrsQs-14" style="edgeStyle=orthogonalEdgeStyle;rounded=0;orthogonalLoop=1;jettySize=auto;html=1;exitX=0;exitY=0.5;exitDx=0;exitDy=0;entryX=0.25;entryY=1;entryDx=0;entryDy=0;curved=1;" edge="1" parent="1" source="pHmys_1eCfRG4DtqrsQs-9" target="pHmys_1eCfRG4DtqrsQs-9">
          <mxGeometry relative="1" as="geometry" />
        </mxCell>
        <mxCell id="pHmys_1eCfRG4DtqrsQs-15" value="&lt;span id=&quot;selected_text&quot;&gt;&lt;/span&gt;3. Sinh khoá bí mật và lưu context về khoá bí mật&lt;div&gt;&lt;br&gt;&lt;div&gt;4. Mã hoá dữ liệu với khoá bí mật và mã hoá&amp;nbsp;&lt;div&gt;khoá bí mật với khoá công khai bên nhận vừa nhận được&lt;/div&gt;&lt;div&gt;&lt;br&gt;&lt;/div&gt;&lt;div&gt;&lt;div&gt;12. Giải mã dữ liệu với khoá bí mật đã được lưu ở bước 3&lt;/div&gt;&lt;/div&gt;&lt;/div&gt;&lt;/div&gt;" style="text;html=1;align=center;verticalAlign=middle;resizable=0;points=[];autosize=1;strokeColor=none;fillColor=none;" vertex="1" parent="1">
          <mxGeometry x="-65" y="435" width="330" height="100" as="geometry" />
        </mxCell>
        <mxCell id="pHmys_1eCfRG4DtqrsQs-16" value="&lt;span id=&quot;selected_text&quot;&gt;&lt;/span&gt;5. Gửi request với dữ liệu đã được mã hoá, kèm với đó là&amp;nbsp;&lt;br&gt;khoá bí mật đã được mã hoá ở trong header" style="text;html=1;align=center;verticalAlign=middle;resizable=0;points=[];autosize=1;strokeColor=none;fillColor=none;" vertex="1" parent="1">
          <mxGeometry x="275" y="330" width="330" height="40" as="geometry" />
        </mxCell>
        <mxCell id="pHmys_1eCfRG4DtqrsQs-17" value="&lt;span id=&quot;selected_text&quot;&gt;&lt;/span&gt;11. Gửi response với dữ liệu đã được mã hoá" style="text;html=1;align=center;verticalAlign=middle;resizable=0;points=[];autosize=1;strokeColor=none;fillColor=none;" vertex="1" parent="1">
          <mxGeometry x="305" y="390" width="270" height="30" as="geometry" />
        </mxCell>
        <mxCell id="pHmys_1eCfRG4DtqrsQs-18" style="edgeStyle=orthogonalEdgeStyle;rounded=0;orthogonalLoop=1;jettySize=auto;html=1;exitX=1;exitY=0.5;exitDx=0;exitDy=0;entryX=0.75;entryY=1;entryDx=0;entryDy=0;curved=1;" edge="1" parent="1" source="pHmys_1eCfRG4DtqrsQs-12" target="pHmys_1eCfRG4DtqrsQs-12">
          <mxGeometry relative="1" as="geometry" />
        </mxCell>
        <mxCell id="pHmys_1eCfRG4DtqrsQs-19" value="&lt;span id=&quot;selected_text&quot;&gt;&lt;/span&gt;6.&amp;nbsp;&lt;span style=&quot;background-color: initial;&quot;&gt;Giải mã khoá bí mật trong header với khoá riêng tư &lt;br&gt;và giải mã&amp;nbsp;&lt;/span&gt;&lt;span style=&quot;background-color: initial;&quot;&gt;dữ liệu với khoá bí mật đó&lt;/span&gt;&lt;div&gt;&lt;br&gt;&lt;/div&gt;&lt;div&gt;7. Lưu context về khoá bí mật&lt;/div&gt;&lt;div&gt;&lt;br&gt;&lt;div&gt;10.&lt;span style=&quot;background-color: initial;&quot;&gt;&amp;nbsp;Mã hoá dữ liệu với khoá bí mật lưu từ bước 7&lt;br&gt;&lt;/span&gt;&lt;/div&gt;&lt;/div&gt;" style="text;html=1;align=center;verticalAlign=middle;resizable=0;points=[];autosize=1;strokeColor=none;fillColor=none;" vertex="1" parent="1">
          <mxGeometry x="615" y="445" width="310" height="100" as="geometry" />
        </mxCell>
        <mxCell id="pHmys_1eCfRG4DtqrsQs-20" value="&lt;span id=&quot;selected_text&quot;&gt;&lt;/span&gt;8. Request với&amp;nbsp;&lt;div&gt;dữ liệu đã được giải mã&lt;/div&gt;" style="text;html=1;align=center;verticalAlign=middle;resizable=0;points=[];autosize=1;strokeColor=none;fillColor=none;" vertex="1" parent="1">
          <mxGeometry x="505" y="280" width="150" height="40" as="geometry" />
        </mxCell>
        <mxCell id="pHmys_1eCfRG4DtqrsQs-21" value="9. Response với&lt;div&gt;dữ liệu bình thường&lt;/div&gt;" style="text;html=1;align=center;verticalAlign=middle;resizable=0;points=[];autosize=1;strokeColor=none;fillColor=none;" vertex="1" parent="1">
          <mxGeometry x="720" y="280" width="130" height="40" as="geometry" />
        </mxCell>
        <mxCell id="pHmys_1eCfRG4DtqrsQs-22" style="edgeStyle=orthogonalEdgeStyle;rounded=0;orthogonalLoop=1;jettySize=auto;html=1;exitX=0.25;exitY=0;exitDx=0;exitDy=0;entryX=0.25;entryY=1;entryDx=0;entryDy=0;" edge="1" parent="1">
          <mxGeometry relative="1" as="geometry">
            <mxPoint x="170" y="350" as="sourcePoint" />
            <mxPoint x="170" y="240" as="targetPoint" />
          </mxGeometry>
        </mxCell>
        <mxCell id="pHmys_1eCfRG4DtqrsQs-23" value="13. Response với&lt;div&gt;dữ liệu bình thường&lt;/div&gt;" style="text;html=1;align=center;verticalAlign=middle;resizable=0;points=[];autosize=1;strokeColor=none;fillColor=none;" vertex="1" parent="1">
          <mxGeometry x="35" y="280" width="130" height="40" as="geometry" />
        </mxCell>
        <mxCell id="pHmys_1eCfRG4DtqrsQs-24" value="WSO2 2&lt;br&gt;Public key provider" style="whiteSpace=wrap;html=1;" vertex="1" parent="1">
          <mxGeometry x="630" y="590" width="120" height="50" as="geometry" />
        </mxCell>
        <mxCell id="pHmys_1eCfRG4DtqrsQs-25" value="2. Request lấy khoá công khai" style="text;html=1;align=center;verticalAlign=middle;resizable=0;points=[];autosize=1;strokeColor=none;fillColor=none;rotation=28;" vertex="1" parent="1">
          <mxGeometry x="370" y="490" width="180" height="30" as="geometry" />
        </mxCell>
        <mxCell id="pHmys_1eCfRG4DtqrsQs-26" value="&lt;b style=&quot;font-size: 23px;&quot;&gt;LGSP 1&lt;/b&gt;" style="text;html=1;align=center;verticalAlign=middle;resizable=0;points=[];autosize=1;strokeColor=none;fillColor=none;fontSize=23;" vertex="1" parent="1">
          <mxGeometry x="-60" y="180" width="100" height="40" as="geometry" />
        </mxCell>
        <mxCell id="pHmys_1eCfRG4DtqrsQs-27" value="&lt;b style=&quot;font-size: 23px;&quot;&gt;LGSP 2&lt;/b&gt;" style="text;html=1;align=center;verticalAlign=middle;resizable=0;points=[];autosize=1;strokeColor=none;fillColor=none;fontSize=23;" vertex="1" parent="1">
          <mxGeometry x="810" y="180" width="100" height="40" as="geometry" />
        </mxCell>
      </root>
    </mxGraphModel>
  </diagram>
</mxfile>
